<?xml version="1.0" encoding="UTF-8" standalone="no"?>
<!-- Created with Inkscape (http://www.inkscape.org/) -->

<svg
   xmlns:dc="http://purl.org/dc/elements/1.1/"
   xmlns:cc="http://creativecommons.org/ns#"
   xmlns:rdf="http://www.w3.org/1999/02/22-rdf-syntax-ns#"
   xmlns:svg="http://www.w3.org/2000/svg"
   xmlns="http://www.w3.org/2000/svg"
   xmlns:sodipodi="http://sodipodi.sourceforge.net/DTD/sodipodi-0.dtd"
   xmlns:inkscape="http://www.inkscape.org/namespaces/inkscape"
   width="112.26894mm"
   height="106.05721mm"
   viewBox="0 0 112.26895 106.0572"
   version="1.1"
   id="svg8"
   inkscape:version="0.92.2 (5c3e80d, 2017-08-06)"
   sodipodi:docname="logo.svg">
  <defs
     id="defs2" />
  <sodipodi:namedview
     id="base"
     pagecolor="#ffffff"
     bordercolor="#666666"
     borderopacity="1.0"
     inkscape:pageopacity="0.0"
     inkscape:pageshadow="2"
     inkscape:zoom="0.98994949"
     inkscape:cx="38.543935"
     inkscape:cy="-11.10895"
     inkscape:document-units="mm"
     inkscape:current-layer="layer1"
     showgrid="false"
     inkscape:window-width="1920"
     inkscape:window-height="1137"
     inkscape:window-x="-8"
     inkscape:window-y="-8"
     inkscape:window-maximized="1"
     fit-margin-top="0"
     fit-margin-left="0"
     fit-margin-right="0"
     fit-margin-bottom="0" />
  <metadata
     id="metadata5">
    <rdf:RDF>
      <cc:Work
         rdf:about="">
        <dc:format>image/svg+xml</dc:format>
        <dc:type
           rdf:resource="http://purl.org/dc/dcmitype/StillImage" />
        <dc:title></dc:title>
      </cc:Work>
    </rdf:RDF>
  </metadata>
  <g
     inkscape:label="Layer 1"
     inkscape:groupmode="layer"
     id="layer1"
     transform="translate(-64.990882,-1.5889602)">
    <g
       id="g1539"
       transform="matrix(0.63930174,0,0,0.70883364,63.93731,0.46265177)">
      <g
         transform="matrix(0.76537986,0,0,0.66350986,1.6476415,0.28051879)"
         id="g3757">
        <g
           id="g3701">
          <path
             inkscape:connector-curvature="0"
             d="m 229.1,119.594 c -1.408,-18.315 -7.348,-36.558 -16.439,-52.481 -3.774,-6.613 -8.899,-15.435 -16.17,-18.887 -2.356,-1.118 -5.498,2.545 -7.199,3.843 -5.049,3.849 -10.092,7.706 -15.123,11.576 -11.176,8.595 -22.174,17.391 -33.137,26.256 -1.011,-5.28 4.313,-11.601 6.879,-15.862 3.166,-5.258 6.373,-10.844 7.047,-17.061 0.795,-7.349 -3.887,-15.198 -7.614,-21.145 C 138.402,21.566 123.784,2.329 105.235,1.983 V 1.972 c -0.613,0 -1.228,0 -1.842,0 V 1.984 C 86.319,2.302 73.297,18.499 64.305,31.289 59.981,37.44 55.657,44.354 54.05,51.802 c -2.102,9.744 4.653,18.756 9.338,26.673 2.825,4.774 5.845,9.308 2.978,14.808 -1.155,1.98 -3.086,3.775 -4.534,5.547 -3.272,4.003 -6.946,7.734 -9.903,11.971 -4.369,6.263 -9.521,14.159 -9.607,22.063 -0.139,12.779 1.936,25.319 3.58,37.947 -13.695,11.777 -27.354,23.604 -41.148,35.264 -3.201,2.705 -5.048,3.6 -4.715,7.931 0.206,2.672 2.117,7.46 3.31,9.967 1.229,2.584 4.446,-0.438 5.141,-1.015 5.026,-4.15 10.054,-8.303 15.081,-12.454 7.83,-6.47 15.662,-12.938 23.492,-19.405 -0.764,13.938 -6.682,24.895 -14.088,36.374 h 142.682 c -6.764,-10.476 -13.17,-20.45 -13.838,-33.153 -0.595,-11.283 0.812,-22.803 2.367,-34.063 1.508,-10.898 4.432,-24.313 0.496,-34.92 -2.801,-7.552 -7.441,-14.814 -13.031,-20.623 l 30.523,-25.211 c 17.348,12.556 27.527,29.426 31.6,50.367 1.164,5.992 1.926,12.058 2.48,18.133 0.138,1.498 0.781,16.798 5.477,9.301 6.968,-11.163 8.359,-24.848 7.369,-37.71 -1.133,-14.728 1.177,15.303 0,0 z"
             id="path3699" />
        </g>
        <g
           id="g3703" />
        <g
           id="g3705" />
        <g
           id="g3707" />
        <g
           id="g3709" />
        <g
           id="g3711" />
        <g
           id="g3713" />
        <g
           id="g3715" />
        <g
           id="g3717" />
        <g
           id="g3719" />
        <g
           id="g3721" />
        <g
           id="g3723" />
        <g
           id="g3725" />
        <g
           id="g3727" />
        <g
           id="g3729" />
        <g
           id="g3731" />
      </g>
      <text
         id="text3761"
         y="84.502907"
         x="62.949718"
         style="font-style:normal;font-variant:normal;font-weight:normal;font-stretch:normal;font-size:10.58333302px;line-height:1.25;font-family:SolsticeOfSuffering;-inkscape-font-specification:SolsticeOfSuffering;letter-spacing:0px;word-spacing:0px;fill:#000000;fill-opacity:1;stroke:none;stroke-width:0.26458332"
         xml:space="preserve"><tspan
           style="font-style:normal;font-variant:normal;font-weight:normal;font-stretch:normal;font-size:22.57777786px;font-family:Impact;-inkscape-font-specification:Impact;fill:#ffffff;stroke-width:0.26458332"
           y="84.502907"
           x="62.949718"
           id="tspan3759"
           sodipodi:role="line">GPG</tspan></text>
      <g
         id="text3765"
         style="font-style:normal;font-variant:normal;font-weight:normal;font-stretch:normal;font-size:10.58333302px;line-height:1.25;font-family:SolsticeOfSuffering;-inkscape-font-specification:SolsticeOfSuffering;letter-spacing:0px;word-spacing:0px;fill:#000000;fill-opacity:1;stroke:none;stroke-width:0.26458332;stroke-opacity:1"
         aria-label="REAPER">
        <path
           inkscape:connector-curvature="0"
           id="path857"
           style="font-style:normal;font-variant:normal;font-weight:normal;font-stretch:normal;font-size:22.57777786px;font-family:SolsticeOfSuffering;-inkscape-font-specification:SolsticeOfSuffering;fill:#ff3e3e;fill-opacity:1;stroke:none;stroke-width:0.26458332;stroke-opacity:1"
           d="m 55.867149,108.61426 q 0,0.6096 -0.158044,1.24178 l -0.293511,1.17405 q -0.02258,0.11288 -0.135467,1.85137 -0.06773,0.99343 -0.451556,1.46756 -0.338666,-0.18062 -0.383822,-0.63218 v -0.85795 q 0,-0.51929 -0.135467,-1.44498 -0.06773,-0.54187 -0.135466,-1.08374 -0.135467,-1.60302 -1.309511,-3.72533 -0.564445,1.06116 -1.016,1.06116 -0.654756,0 -0.970845,-0.99343 0,0 -0.4064,-1.49013 l -0.925689,-2.28035 q -0.587022,0.0903 -0.699911,0.8128 -0.04516,0.42897 -0.135466,1.26435 -0.383823,2.55129 -0.383823,4.69618 0,3.43182 -0.06773,4.22204 -0.112889,1.28694 -0.722489,1.37725 -0.361244,-2.25778 -0.835378,-5.53156 -0.135466,-1.2192 -0.135466,-2.61902 0,-0.4064 -0.158045,-0.83538 -0.135466,-0.42898 -0.316089,-0.42898 -0.4064,0 -0.632177,1.08374 -0.4064,-0.33867 -0.654756,-0.51929 -0.519289,0.6096 -0.903111,2.59644 -0.180622,0.79023 -0.587022,2.79965 -0.04516,0.22578 -0.04516,0.65475 0,0.36125 0.248356,2.52871 0.180622,1.58045 -0.02258,2.48356 -0.8128,-0.22578 -1.106311,-1.44498 -0.04516,-0.24835 -0.248356,-2.32551 l -0.02258,-16.301135 q 0,-6.457243 0.6096,-8.534398 2.619023,0.564444 5.305778,1.512711 2.393245,0.835377 3.635022,1.490133 0.135467,1.6256 0.135467,3.838222 0,0.112889 0.04516,0.745068 0.04515,0.632177 0.04515,0.835377 0,0.880524 -0.383822,1.241761 -0.135467,-0.293507 -0.428978,-1.015994 -0.293511,-0.745054 -0.519289,-0.745054 -0.135466,0 -0.428977,0.293507 -0.270934,0.293507 -0.428978,0.293507 -0.2032,0 -0.767645,-0.248357 -0.541866,-0.24835 -0.632177,-0.24835 -0.270934,0 -0.451556,0.496707 1.286933,1.309504 3.476978,3.928515 2.551289,3.048 4.425244,5.64445 0,0.24835 0.04516,0.88053 0.06773,0.63218 0.06773,0.79022 z m -0.835378,-1.67075 q -5.125155,-6.66045 -8.466666,-9.776162 4.583289,-3.702753 4.628444,-4.809064 -3.589867,-1.715911 -8.060267,-2.799644 l -0.587022,17.38487 1.038578,-1.58045 q 0.180622,-3.74791 0.835378,-5.847637 l 0.925689,-1.106301 q 1.6256,0.677324 5.102577,4.018828 1.512712,1.51271 4.583289,4.51556 z M 49.635682,92.922729 q -2.619022,2.528711 -5.147733,4.425239 -0.293511,-1.715906 -0.293511,-3.657595 0,-1.083733 0.09031,-2.257778 1.8288,-0.112888 5.350933,1.490134 z m -1.241777,0.270933 q -0.04516,0 -0.338667,0.158045 -0.270933,0.135466 -0.383822,0.135466 -0.248356,0 -0.519289,-0.474133 -0.06773,0.428978 -0.4064,1.286933 h -0.564445 q -0.2032,-1.467555 -0.2032,-1.738489 -0.2032,0.225778 -0.2032,1.286934 -0.04516,0 -0.451555,-0.06773 0,-0.4064 -0.2032,-0.835377 -0.4064,0.2032 -0.4064,1.151466 0,0.451556 0.225778,1.896534 0.316089,-0.09031 0.903111,-0.835378 0.06773,-0.09031 1.286933,-0.8128 1.083733,-0.654756 1.264356,-1.151467 z" />
        <path
           inkscape:connector-curvature="0"
           id="path859"
           style="font-style:normal;font-variant:normal;font-weight:normal;font-stretch:normal;font-size:22.57777786px;font-family:SolsticeOfSuffering;-inkscape-font-specification:SolsticeOfSuffering;fill:#ff3e3e;fill-opacity:1;stroke:none;stroke-width:0.26458332;stroke-opacity:1"
           d="m 59.331427,89.806995 q -1.061156,2.280356 -1.512711,5.305778 -0.451556,3.002839 -0.451556,7.766737 0,1.85138 0.06773,4.13173 6.863644,-1.46755 8.7376,-2.93511 -4.131734,0.90311 -6.028267,0.90311 -1.264356,0 -1.670756,-0.38382 -0.06773,-0.49671 -0.06773,-1.26436 0,-2.19004 0.4064,-5.238028 0.948267,-0.293507 2.528711,-0.293507 1.286934,0 3.838222,0.158037 -1.648177,-0.587017 -2.596444,-0.790214 -1.580444,-0.33867 -3.680178,-0.33867 0.112889,-3.951105 1.151467,-5.554127 0.112889,-0.158044 0.8128,-0.158044 2.325511,0 6.276622,1.603022 0.632178,-0.925689 0.564445,-1.535289 -3.951112,-1.399822 -8.376355,-1.377245 z m 0.745067,3.770489 q -0.496711,0 -0.541867,0.270934 -0.06773,0.587022 -0.135467,0.654755 l -0.06773,1.512711 q 0.880533,0 2.032,0.316087 1.286933,0.36125 1.919111,0.4064 0.316089,0.0226 1.399822,0.474137 1.083734,0.451547 1.399823,0.496707 0.02258,0.15804 0.270933,1.964248 0.158044,1.106307 0.158044,1.964267 0,0.8128 -0.158044,1.53529 -0.632178,-0.22578 -0.767645,-1.06116 l -0.09031,-1.53529 q -0.135466,-0.54186 -0.383822,-1.557854 -0.316089,0.13546 -0.383822,0.474127 v 0.745067 q -0.6096,-0.2032 -0.790222,-0.835374 -0.474134,0.135467 -0.541867,1.241774 0,0 -0.04516,1.6256 -0.112888,0.92569 -0.428977,0.92569 -0.180623,0 -0.361245,-0.24836 -0.158044,-0.24835 -0.180622,-0.51929 -0.02258,-0.29351 -0.09031,-0.94826 -0.02258,-0.2032 -0.293511,-0.8128 -0.158045,0.0451 -0.270934,0.51928 -0.04516,0.31609 -0.112888,0.63218 -0.361245,-0.27093 -0.474134,-0.94826 -0.112889,-0.79023 -0.293511,-1.061157 -0.496711,0.203197 -0.541867,0.338667 -0.04515,0.51929 -0.04515,0.58702 -0.06773,0.33867 -0.270933,0.63218 -0.180623,0.29351 -0.270934,0.45155 -0.180622,-0.24835 -0.383822,-0.51929 -0.2032,-0.27093 -0.4064,-0.33866 -0.06773,0.31609 -0.06773,0.88053 0,2.12231 1.512711,2.12231 0.6096,0 2.709333,-0.22578 2.122311,-0.22577 2.754489,-0.22577 0.541867,0 1.038578,0.0452 l -0.02258,5.01227 -0.361244,1.8288 q -0.699912,-0.33867 -1.038578,-1.28694 -0.180622,-0.58702 -0.541867,-1.76106 -0.428978,-1.30951 -1.038578,-1.30951 -0.4064,0 -0.496711,0.51929 -0.02258,0.13546 -0.02258,0.90311 -0.338666,0.0677 -0.519288,0.0677 -0.496712,-0.8128 -0.677334,-0.8128 -0.316089,0 -0.316089,0.63218 l 0.158045,1.28693 q 0.06773,0.56445 0.06773,2.48356 0,1.96426 -0.04516,2.4384 -0.112889,1.24177 -0.677334,1.98684 -0.316089,-0.27093 -0.361244,-0.99342 -0.02258,-0.29351 -0.02258,-1.28693 0,-1.33209 -0.474133,-2.52872 -0.338667,0.22578 -0.451556,1.64818 -0.09031,1.28694 -0.519289,1.28694 -0.361244,0 -0.451555,-0.31609 -0.06773,-0.18063 -0.135467,-3.72534 0,-0.2032 0,-0.63217 -0.02258,-0.47414 -0.248356,-0.47414 -0.270933,0 -0.4064,0.38382 -0.02258,0.0677 -0.270933,1.26436 -0.112889,0.58702 -0.496711,1.016 -0.383822,-0.36124 -0.654756,-1.8288 v -2.41582 q 0,-7.563554 0.158045,-9.708432 0.316089,-4.267194 1.738489,-8.082838 0.925689,-0.04516 1.693333,-0.04516 2.099733,0 3.770489,0.316089 1.693333,0.293511 4.041422,1.106311 0,0.383823 0.02258,1.444978 0.02258,1.061156 0.02258,1.444978 0,0.654755 -0.158045,1.851378 l -0.225777,1.715914 q -0.04516,0.609597 -0.112889,0.790217 -0.112889,0.406397 -0.451556,0.406397 -0.270933,0 -0.4064,-0.677327 -0.112889,-0.541867 -0.135467,-2.257779 -0.02258,-1.512711 -0.248355,-2.122311 -0.4064,0.180622 -0.541867,0.948266 -0.06773,0.4064 -0.2032,1.219201 L 65.38227,94.706389 q -0.135466,-0.180622 -0.248355,-0.880533 -0.112889,-0.699911 -0.270933,-0.903111 -0.180623,0.338666 -0.903112,2.483555 -0.338666,-0.2032 -0.338666,-0.835377 0,-0.225778 0.112889,-1.038578 0.09031,-0.632178 0.02258,-0.903111 -0.112888,0.316089 -0.180622,0.4064 -0.06773,0.09031 -0.338666,0.248355 H 62.85356 l -0.225777,-0.76766 H 62.04076 q -0.135466,0.248355 -0.270933,0.519289 -0.112889,0.338666 -0.112889,1.174044 -0.04515,0.2032 -0.383822,0.361245 -0.496711,0 -0.632178,-0.361245 -0.02258,-0.225778 -0.04516,-0.451555 -0.09031,-0.180623 -0.519289,-0.180623 z" />
        <path
           inkscape:connector-curvature="0"
           id="path861"
           style="font-style:normal;font-variant:normal;font-weight:normal;font-stretch:normal;font-size:22.57777786px;font-family:SolsticeOfSuffering;-inkscape-font-specification:SolsticeOfSuffering;fill:#ff3e3e;fill-opacity:1;stroke:none;stroke-width:0.26458332;stroke-opacity:1"
           d="m 84.549041,106.89835 q 0.293511,0.6096 0.293511,1.64818 0,1.19662 -0.428977,1.55787 -0.09031,-0.24836 -0.180623,-1.44498 -0.09031,-1.19662 -0.158044,-1.46756 -0.2032,-0.76764 -0.767644,-0.92569 -0.06773,0.76765 -0.112889,3.58987 -0.02258,2.30293 -0.338667,3.56729 -0.270933,-0.38382 -0.270933,-1.44498 0,-0.24835 0.02258,-1.03858 0.04516,-0.76764 0.04516,-0.90311 0,-0.0903 -0.180622,-4.35751 -0.474134,-0.0452 -0.496711,-0.58702 0,-0.56444 -0.09031,-1.55787 -0.135467,-0.54186 -0.361245,-0.54186 -0.2032,0 -0.428978,0.56444 -0.248355,0.63218 -0.270933,1.33209 v 1.49013 q 0,0.2032 0.112889,1.49014 0.135467,1.30951 0.135467,1.78364 0,0.94827 -0.225778,1.55787 H 80.19153 q -0.2032,-0.38382 -0.316089,-1.24178 -0.06773,-0.76764 -0.135466,-1.55787 -0.316089,-3.07057 -0.654756,-3.07057 -0.338667,0 -0.496711,1.60302 -0.04516,0.65475 -0.158045,1.98684 -0.2032,1.69334 -0.2032,3.77049 0,0.11289 0.02258,0.49671 0.02258,0.4064 0.02258,0.51929 0,0.99342 -0.632178,1.19662 -0.293511,-0.65475 -0.293511,-1.87395 -0.02258,-1.6256 -0.09031,-2.032 -0.361244,-1.8288 -0.790222,-4.62845 -0.04516,-0.31609 -0.112889,-0.94826 -0.02258,-0.22578 -0.316089,-0.88054 -0.451556,0.58703 -0.541867,0.92569 -0.06773,0.31609 -0.06773,1.30951 v 2.52871 q -0.02258,0.4064 -0.270933,0.4064 -0.428978,0 -0.541867,-0.65475 -0.02258,-0.13547 -0.02258,-1.12889 0,-0.29351 0.06773,-1.64818 0.06773,-1.35466 0.06773,-1.85138 0,-0.31608 0.04515,-0.42897 0.02258,0 0.04516,0.0451 -0.02258,-0.0451 -0.158044,-0.4064 -0.02258,-0.0903 -0.112889,-0.0677 -0.158045,0.0677 -0.270934,0.0677 -0.451555,0 -0.564444,0.42898 -0.09031,0.4064 -0.158045,0.8128 -0.293511,0.85796 -0.338666,1.24178 l -0.135467,1.35466 q -0.428978,-0.0677 -0.587022,-0.63217 -0.270933,-0.90311 -0.316089,-0.99343 -0.338667,0.0452 -0.835378,0.2032 -0.428978,0.31609 -0.564444,1.12889 -0.06773,0.47414 -0.225778,1.39983 -0.338667,1.71591 -0.338667,4.28977 0,0.0677 -0.04516,0.97085 -0.04516,0.8128 -0.02258,1.12889 0.02258,0.63217 0.135467,0.97084 0.293511,0.94827 0.293511,0.99342 0,0.27094 -0.2032,0.58703 -0.880534,-0.65476 -0.880534,-2.68676 0,-0.4064 0.06773,-1.60302 0.09031,-1.17405 0.09031,-1.37725 0,-0.74506 -0.474133,-1.64817 -0.135467,-0.27094 -0.135467,-0.85796 0,-0.27093 0.06773,-1.10631 0.06773,-0.8128 0.06773,-0.94827 0.09031,-0.83538 0.519288,-2.28035 0.451556,-1.46756 0.767645,-2.07716 2.709333,-5.215455 5.2832,-8.1054 1.061155,-1.196622 3.838222,-3.522133 1.919111,-1.286934 2.077156,-1.354667 1.196622,-0.722489 2.190044,-0.903111 0.8128,5.396089 0.8128,13.907891 0,2.4384 -0.112889,3.92853 z m -0.451555,-1.10631 q 0.04515,-1.80622 -0.112889,-6.502394 -0.2032,-5.689584 -0.541867,-9.324606 -3.770489,1.377244 -6.615289,4.560711 -2.280355,2.551287 -5.554133,8.240869 -0.474133,1.19662 -1.196622,2.75449 0.6096,-0.24836 1.941689,-1.46756 0.767644,-0.69991 1.738488,-3.13831 l 0.338667,-0.33867 q 0.04516,-0.11288 0.587022,-0.857947 2.2352,0 4.244623,0.18062 1.377244,0.112887 2.6416,0.316087 1.106311,0.18062 1.083733,0.18062 l 0.04516,3.63502 q 0.180622,0.31609 0.564444,0.92569 0.474133,0.74507 0.835378,0.83538 z m -8.760178,-7.089411 q 0.745067,-2.257768 3.138311,-4.425234 1.332089,-1.2192 4.041422,-3.025422 0.270934,1.738489 0.270934,4.018845 0,1.73849 -0.158045,3.793048 -1.557866,-0.135457 -3.476978,-0.203197 -1.196622,-0.0452 -2.980266,-0.0903 -1.106311,-0.0226 -0.835378,-0.0677 z m 6.524978,-3.1383 q -0.04516,-0.677333 -0.158045,-0.835378 -0.06773,-0.04516 -0.112889,-0.112889 -0.02258,-0.06773 0,-0.2032 0.02258,-0.135467 0.02258,-0.2032 -0.632178,0.158045 -0.632178,1.964267 -0.225777,-0.04516 -0.383822,-0.316089 -0.225778,-0.4064 -0.338666,-0.519289 -0.04516,0.04516 -0.316089,1.10631 -0.248356,1.038574 -0.474134,1.151464 1.309511,0.11289 1.919111,0.11289 0.180623,0 0.316089,-0.970844 z m -3.138311,0.112889 q -0.112889,0.496711 -0.361245,1.28693 -0.09031,-0.0226 -0.316089,-0.13547 -0.225778,-0.112887 -0.293511,-0.112887 -0.270933,0 -0.316089,0.225777 v 0.587017 h -0.632178 q 0.180623,0.474137 0.677334,0.474137 0.135466,0 0.587022,-0.0903 0.474133,-0.112887 0.564444,-0.112887 l 0.2032,-1.399814 q 0,-0.383827 -0.112888,-0.722493 z" />
        <path
           inkscape:connector-curvature="0"
           id="path863"
           style="font-style:normal;font-variant:normal;font-weight:normal;font-stretch:normal;font-size:22.57777786px;font-family:SolsticeOfSuffering;-inkscape-font-specification:SolsticeOfSuffering;fill:#ff3e3e;fill-opacity:1;stroke:none;stroke-width:0.26458332;stroke-opacity:1"
           d="m 87.228037,112.3396 v 2.73191 q 0,0.0677 0.04515,0.6096 0.04516,0.56444 0.04516,0.76764 0,0.90311 -0.474133,0.90311 -0.293512,0 -0.338667,-0.0677 -0.135467,-0.15804 -0.09031,-0.67733 0.06773,-0.63218 0.04515,-0.74507 -0.02258,-0.15804 -0.4064,-0.79022 -0.496711,-0.83538 -0.316089,-2.66418 0.248356,-2.50613 0.248356,-3.31893 0,-1.58045 0.02258,-1.2192 -0.04516,-0.63218 -0.383822,-0.85796 l 0.04515,-9.889052 q 0.09031,-7.066837 0.790222,-8.173148 3.138311,0.361244 4.8768,0.745067 2.054578,0.474133 3.589867,1.354666 0.632178,0.677334 0.632178,1.896534 0,0.248355 -0.09031,1.286933 -0.09031,1.038578 -0.09031,1.377244 0,0.496712 -0.06773,2.009421 -0.06773,1.490121 -0.06773,1.896518 0,0.0903 0.02258,0.767637 0.04515,0.67734 0.04515,0.92569 0,1.69334 -0.677333,1.69334 -0.361245,0 -0.632178,-0.72249 -0.270933,-0.65476 -0.270933,-1.35467 0,-1.828794 -0.02258,-2.099721 -0.09031,-1.061154 -0.541867,-1.806221 -0.158044,0.564447 -0.541866,1.625591 -0.677334,-0.993414 -0.970845,-2.077138 -0.970844,0.13547 -1.2192,1.603011 -0.09031,0.767647 -0.270933,2.302918 -0.361245,2.59645 -0.519289,4.22205 0.02258,0.54187 -0.2032,1.69333 -0.699911,-0.18062 -0.880533,-1.10631 -0.06773,-0.33867 -0.04516,-1.76107 0.04516,-1.4224 -0.04516,-1.69333 -0.293512,0.67733 -0.316089,1.69333 -0.02258,1.016 -0.04516,1.37725 -0.02258,0.72249 -0.158044,1.17404 -0.158045,0.31609 -0.383823,1.10631 0,0.6096 -0.180622,2.6416 -0.158044,2.032 -0.158044,2.61903 z M 94.656126,91.568062 Q 92.57897,90.57464 91.066259,90.16824 89.101992,89.626373 86.663592,89.55864 l -0.519289,17.4526 1.174045,-3.00284 q 0.158044,-4.447827 0.632178,-6.524965 2.731911,-1.128884 4.515555,-2.686751 1.783645,-1.557866 2.190045,-3.228622 z m -1.693334,0.519289 q -1.648177,2.573867 -5.012266,3.770489 -0.06773,-0.948267 -0.06773,-1.783645 0,-1.670755 0.270934,-2.957688 0.383822,-0.04516 0.722489,-0.04516 0.745066,0 1.964266,0.338667 1.061156,0.338666 2.122311,0.677333 z m -1.241777,0.338667 q 0,0.248355 -0.2032,0.587022 -0.180623,0.316089 -0.361245,0.316089 -0.2032,0 -0.383822,-0.564445 -0.180622,-0.587022 -0.361245,-0.6096 -0.112888,0.745067 -0.451555,1.512711 -0.383822,-0.2032 -0.587022,-1.309511 -0.383823,0.2032 -0.632178,0.835378 -0.225778,0.6096 -0.225778,1.2192 0,0.180622 0.02258,0.361245 h 0.519289 q 0.361244,-0.4064 0.587022,-0.587023 0.09031,-0.06773 1.309511,-0.587022 0.903111,-0.383822 0.903111,-0.8128 0,-0.158044 -0.135466,-0.361244 z" />
        <path
           inkscape:connector-curvature="0"
           id="path865"
           style="font-style:normal;font-variant:normal;font-weight:normal;font-stretch:normal;font-size:22.57777786px;font-family:SolsticeOfSuffering;-inkscape-font-specification:SolsticeOfSuffering;fill:#ff3e3e;fill-opacity:1;stroke:none;stroke-width:0.26458332;stroke-opacity:1"
           d="m 99.107119,89.806995 q -1.061156,2.280356 -1.512711,5.305778 -0.451556,3.002839 -0.451556,7.766737 0,1.85138 0.06773,4.13173 6.863648,-1.46755 8.737608,-2.93511 -4.13174,0.90311 -6.028275,0.90311 -1.264356,0 -1.670756,-0.38382 -0.06773,-0.49671 -0.06773,-1.26436 0,-2.19004 0.4064,-5.238028 0.948267,-0.293507 2.528711,-0.293507 1.28693,0 3.83822,0.158037 -1.64817,-0.587017 -2.59644,-0.790214 -1.58045,-0.33867 -3.68018,-0.33867 0.112889,-3.951105 1.151467,-5.554127 0.112889,-0.158044 0.812803,-0.158044 2.32551,0 6.27662,1.603022 0.63218,-0.925689 0.56444,-1.535289 -3.95111,-1.399822 -8.376351,-1.377245 z m 0.745067,3.770489 q -0.496711,0 -0.541867,0.270934 -0.06773,0.587022 -0.135467,0.654755 l -0.06773,1.512711 q 0.880533,0 2.031998,0.316087 1.28693,0.36125 1.91911,0.4064 0.31609,0.0226 1.39982,0.474137 1.08374,0.451547 1.39982,0.496707 0.0226,0.15804 0.27094,1.964248 0.15804,1.106307 0.15804,1.964267 0,0.8128 -0.15804,1.53529 -0.63218,-0.22578 -0.76765,-1.06116 l -0.0903,-1.53529 q -0.13546,-0.54186 -0.38382,-1.557854 -0.31609,0.13546 -0.38382,0.474127 v 0.745067 q -0.6096,-0.2032 -0.79022,-0.835374 -0.47414,0.135467 -0.54187,1.241774 0,0 -0.0452,1.6256 -0.11289,0.92569 -0.42897,0.92569 -0.18063,0 -0.36125,-0.24836 -0.15804,-0.24835 -0.18062,-0.51929 -0.0226,-0.29351 -0.0903,-0.94826 -0.0226,-0.2032 -0.29351,-0.8128 -0.15805,0.0451 -0.27094,0.51928 -0.0452,0.31609 -0.11289,0.63218 -0.36124,-0.27093 -0.47413,-0.94826 -0.11289,-0.79023 -0.29351,-1.061157 -0.49671,0.203197 -0.54187,0.338667 -0.0452,0.51929 -0.0452,0.58702 -0.06773,0.33867 -0.270932,0.63218 -0.180623,0.29351 -0.270934,0.45155 -0.180622,-0.24835 -0.383822,-0.51929 -0.2032,-0.27093 -0.4064,-0.33866 -0.06773,0.31609 -0.06773,0.88053 0,2.12231 1.512718,2.12231 0.6096,0 2.70933,-0.22578 2.12231,-0.22577 2.75449,-0.22577 0.54187,0 1.03858,0.0452 l -0.0226,5.01227 -0.36125,1.8288 q -0.69991,-0.33867 -1.03857,-1.28694 -0.18063,-0.58702 -0.54187,-1.76106 -0.42898,-1.30951 -1.03858,-1.30951 -0.4064,0 -0.49671,0.51929 -0.0226,0.13546 -0.0226,0.90311 -0.33866,0.0677 -0.51929,0.0677 -0.49671,-0.8128 -0.67733,-0.8128 -0.31609,0 -0.31609,0.63218 l 0.15805,1.28693 q 0.0677,0.56445 0.0677,2.48356 0,1.96426 -0.0452,2.4384 -0.11288,1.24177 -0.67733,1.98684 -0.31609,-0.27093 -0.36124,-0.99342 -0.0226,-0.29351 -0.0226,-1.28693 0,-1.33209 -0.47413,-2.52872 -0.338675,0.22578 -0.451564,1.64818 -0.09031,1.28694 -0.519289,1.28694 -0.361244,0 -0.451555,-0.31609 -0.06773,-0.18063 -0.135467,-3.72534 0,-0.2032 0,-0.63217 -0.02258,-0.47414 -0.248356,-0.47414 -0.270933,0 -0.4064,0.38382 -0.02258,0.0677 -0.270933,1.26436 -0.112889,0.58702 -0.496711,1.016 -0.383822,-0.36124 -0.654756,-1.8288 v -2.41582 q 0,-7.563554 0.158045,-9.708432 0.316089,-4.267194 1.738489,-8.082838 0.925689,-0.04516 1.693337,-0.04516 2.09973,0 3.77049,0.316089 1.69333,0.293511 4.04142,1.106311 0,0.383823 0.0226,1.444978 0.0226,1.061156 0.0226,1.444978 0,0.654755 -0.15805,1.851378 l -0.22578,1.715914 q -0.0452,0.609597 -0.11288,0.790217 -0.11289,0.406397 -0.45156,0.406397 -0.27093,0 -0.4064,-0.677327 -0.11289,-0.541867 -0.13547,-2.257779 -0.0226,-1.512711 -0.24835,-2.122311 -0.4064,0.180622 -0.54187,0.948266 -0.0677,0.4064 -0.2032,1.219201 l -0.42898,-0.587023 q -0.13546,-0.180622 -0.24835,-0.880533 -0.11289,-0.699911 -0.27094,-0.903111 -0.18062,0.338666 -0.90311,2.483555 -0.33866,-0.2032 -0.33866,-0.835377 0,-0.225778 0.11289,-1.038578 0.0903,-0.632178 0.0226,-0.903111 -0.11289,0.316089 -0.18062,0.4064 -0.0677,0.09031 -0.33867,0.248355 h -0.38382 l -0.22578,-0.767644 h -0.58702 q -0.13546,0.248355 -0.27093,0.519289 -0.11289,0.338666 -0.11289,1.174044 -0.0452,0.2032 -0.38382,0.361245 -0.49671,0 -0.63218,-0.361245 -0.0226,-0.225778 -0.0452,-0.451555 -0.0903,-0.180623 -0.519288,-0.180623 z" />
        <path
           inkscape:connector-curvature="0"
           id="path867"
           style="font-style:normal;font-variant:normal;font-weight:normal;font-stretch:normal;font-size:22.57777786px;font-family:SolsticeOfSuffering;-inkscape-font-specification:SolsticeOfSuffering;fill:#ff3e3e;fill-opacity:1;stroke:none;stroke-width:0.26458332;stroke-opacity:1"
           d="m 122.58625,108.61426 q 0,0.6096 -0.15804,1.24178 l -0.29352,1.17405 q -0.0226,0.11288 -0.13546,1.85137 -0.0677,0.99343 -0.45156,1.46756 -0.33866,-0.18062 -0.38382,-0.63218 v -0.85795 q 0,-0.51929 -0.13547,-1.44498 -0.0677,-0.54187 -0.13546,-1.08374 -0.13547,-1.60302 -1.30951,-3.72533 -0.56445,1.06116 -1.016,1.06116 -0.65476,0 -0.97085,-0.99343 0,0 -0.4064,-1.49013 l -0.92569,-2.28035 q -0.58702,0.0903 -0.69991,0.8128 -0.0452,0.42897 -0.13547,1.26435 -0.38382,2.55129 -0.38382,4.69618 0,3.43182 -0.0677,4.22204 -0.11289,1.28694 -0.72249,1.37725 -0.36124,-2.25778 -0.83538,-5.53156 -0.13546,-1.2192 -0.13546,-2.61902 0,-0.4064 -0.15805,-0.83538 -0.13547,-0.42898 -0.31609,-0.42898 -0.4064,0 -0.63218,1.08374 -0.4064,-0.33867 -0.65475,-0.51929 -0.51929,0.6096 -0.90311,2.59644 -0.18062,0.79023 -0.58702,2.79965 -0.0452,0.22578 -0.0452,0.65475 0,0.36125 0.24836,2.52871 0.18062,1.58045 -0.0226,2.48356 -0.8128,-0.22578 -1.10631,-1.44498 -0.0452,-0.24835 -0.24836,-2.32551 l -0.0226,-16.301135 q 0,-6.457243 0.6096,-8.534398 2.61903,0.564444 5.30578,1.512711 2.39325,0.835377 3.63502,1.490133 0.13547,1.6256 0.13547,3.838222 0,0.112889 0.0452,0.745068 0.0452,0.632177 0.0452,0.835377 0,0.880524 -0.38382,1.241761 -0.13547,-0.293507 -0.42898,-1.015994 -0.29351,-0.745054 -0.51929,-0.745054 -0.13546,0 -0.42898,0.293507 -0.27093,0.293507 -0.42897,0.293507 -0.2032,0 -0.76765,-0.248357 -0.54186,-0.24835 -0.63218,-0.24835 -0.27093,0 -0.45155,0.496707 1.28693,1.309504 3.47698,3.928515 2.55129,3.048 4.42524,5.64445 0,0.24835 0.0452,0.88053 0.0677,0.63218 0.0677,0.79022 z m -0.83538,-1.67075 q -5.12515,-6.66045 -8.46666,-9.776162 4.58328,-3.702753 4.62844,-4.809064 -3.58987,-1.715911 -8.06027,-2.799644 l -0.58702,17.38487 1.03858,-1.58045 q 0.18062,-3.74791 0.83538,-5.847637 l 0.92569,-1.106301 q 1.6256,0.677324 5.10257,4.018828 1.51271,1.51271 4.58329,4.51556 z m -5.39609,-14.020781 q -2.61902,2.528711 -5.14773,4.425239 -0.29351,-1.715906 -0.29351,-3.657595 0,-1.083733 0.0903,-2.257778 1.8288,-0.112888 5.35093,1.490134 z m -1.24177,0.270933 q -0.0452,0 -0.33867,0.158045 -0.27093,0.135466 -0.38382,0.135466 -0.24836,0 -0.51929,-0.474133 -0.0677,0.428978 -0.4064,1.286933 h -0.56445 q -0.2032,-1.467555 -0.2032,-1.738489 -0.2032,0.225778 -0.2032,1.286934 -0.0451,0 -0.45155,-0.06773 0,-0.4064 -0.2032,-0.835377 -0.4064,0.2032 -0.4064,1.151466 0,0.451556 0.22578,1.896534 0.31608,-0.09031 0.90311,-0.835378 0.0677,-0.09031 1.28693,-0.8128 1.08373,-0.654756 1.26436,-1.151467 z" />
      </g>
      <path
         inkscape:connector-curvature="0"
         id="path4545"
         d="m 42.600946,106.20694 c 0.02601,-0.58987 0.555742,-16.34431 0.555742,-16.528013 0,-0.161229 3.018692,0.697148 4.877667,1.386983 1.021583,0.379092 2.99606,1.218017 3.091622,1.313579 0.03972,0.03972 -0.02016,0.21994 -0.161157,0.485119 -0.293532,0.552 -1.542598,1.843008 -2.914997,3.012871 -0.572471,0.487992 -1.145865,0.980329 -1.27421,1.094099 l -0.233351,0.20684 0.515543,0.489717 c 0.551934,0.524277 2.125379,2.212088 3.082057,3.306075 1.389705,1.58916 4.283665,5.1591 4.227637,5.21512 -0.01601,0.016 -1.127075,-1.04646 -2.469073,-2.36101 -2.401922,-2.35281 -3.690581,-3.52515 -4.788848,-4.356597 -0.604133,-0.457357 -1.586616,-1.069971 -1.715965,-1.069971 -0.04419,0 -0.292394,0.255757 -0.551551,0.568344 -0.460983,0.556037 -0.474879,0.583917 -0.64091,1.286234 -0.290852,1.23029 -0.482693,2.63048 -0.614641,4.48604 l -0.04464,0.62775 -0.43714,0.67519 c -0.240426,0.37136 -0.458308,0.69967 -0.484182,0.72958 -0.02588,0.0299 -0.03469,-0.22566 -0.0196,-0.56795 z m 2.906483,-9.617859 c 1.455036,-1.161198 4.130545,-3.53048 4.130545,-3.657785 0,-0.06856 -1.506559,-0.692428 -2.369257,-0.981104 -1.222425,-0.409048 -2.887363,-0.695132 -2.998546,-0.515236 -0.0851,0.137697 -0.124074,2.875539 -0.05369,3.771688 0.114858,1.462377 0.215051,2.135284 0.314531,2.112464 0.04758,-0.0109 0.486966,-0.33943 0.976414,-0.730027 z"
         style="fill:#ffffff;fill-opacity:1;stroke:none;stroke-width:0.06692261;stroke-miterlimit:4;stroke-dasharray:none;stroke-opacity:1" />
      <path
         inkscape:connector-curvature="0"
         id="path4557"
         d="m 57.467238,106.87379 c -0.06849,-0.17848 -0.04641,-6.74152 0.02699,-8.023891 0.215974,-3.773033 0.761376,-6.556471 1.696995,-8.660554 l 0.170977,-0.384498 0.886039,0.03853 c 2.468012,0.107323 4.663718,0.473114 6.662639,1.109953 0.35083,0.111771 0.6715,0.230365 0.7126,0.263541 0.144182,0.116385 -0.09571,0.890127 -0.427831,1.379895 -0.04467,0.06587 -0.257215,0.0098 -0.936165,-0.247092 -2.134708,-0.807609 -3.87128,-1.220441 -5.192019,-1.234287 -0.884439,-0.0093 -0.975847,0.02225 -1.186087,0.408991 -0.524055,0.964017 -0.863711,2.551115 -0.962131,4.495731 l -0.04393,0.867979 0.761987,6e-5 c 0.961144,1.4e-4 2.360096,0.16094 3.155757,0.36282 0.84519,0.214437 2.001977,0.575607 1.964301,0.613287 -0.01712,0.0171 -0.844347,-0.004 -1.838312,-0.0475 -1.362527,-0.0592 -2.004785,-0.0598 -2.61017,-0.002 -0.906928,0.0861 -1.482252,0.202077 -1.518753,0.306157 -0.01357,0.0387 -0.08519,0.608887 -0.159137,1.267044 -0.18401,1.637774 -0.297055,3.827834 -0.238146,4.613594 l 0.04882,0.6511 0.310642,0.1436 c 0.285234,0.13186 0.4172,0.14332 1.61358,0.14012 1.418955,-0.004 2.054714,-0.0818 4.344262,-0.5331 0.668795,-0.13183 1.230159,-0.22551 1.247476,-0.20819 0.05729,0.0573 -1.870898,0.96224 -2.566072,1.20433 -1.198345,0.41734 -3.366603,1.01076 -5.030187,1.37669 -0.349123,0.0768 -0.683823,0.15449 -0.743783,0.17265 -0.06198,0.0188 -0.126849,-0.0134 -0.150339,-0.0747 z"
         style="fill:#ffffff;fill-opacity:1;stroke:none;stroke-width:0.06692261;stroke-miterlimit:4;stroke-dasharray:none;stroke-opacity:1" />
      <path
         inkscape:connector-curvature="0"
         id="path4559"
         d="m 83.689568,105.45202 c -0.167804,-0.17752 -0.451935,-0.56887 -0.631399,-0.86967 l -0.326297,-0.5469 -0.03401,-1.83124 -0.034,-1.83123 -0.416835,-0.0726 c -1.990585,-0.346647 -4.877612,-0.602497 -6.827155,-0.605017 l -0.748318,-0.001 -0.315404,0.451007 c -0.173475,0.24807 -0.395764,0.54123 -0.49398,0.65148 -0.09821,0.11024 -0.218834,0.30568 -0.268047,0.43431 -0.217948,0.56966 -0.743662,1.62929 -1.016257,2.04836 -0.321225,0.49384 -0.824232,1.00889 -1.537358,1.57415 -0.524328,0.41562 -0.852469,0.62051 -0.852469,0.53229 0,-0.0342 0.130175,-0.34413 0.289277,-0.68865 0.159104,-0.34453 0.405593,-0.91206 0.547753,-1.26118 0.465233,-1.14253 2.984029,-5.217618 4.37083,-7.071429 0.882737,-1.18001 1.274394,-1.640975 2.129017,-2.505757 0.91594,-0.92683 1.701498,-1.575922 2.719136,-2.246771 0.733073,-0.483256 2.303253,-1.30157 2.864215,-1.492707 l 0.295815,-0.100793 0.04016,0.344384 c 0.29894,2.56372 0.804765,15.411683 0.606756,15.411683 -0.03098,0 -0.193622,-0.14524 -0.361426,-0.32276 z m -0.982914,-6.977031 c 0.157475,-2.234917 0.113311,-5.259096 -0.09851,-6.745409 l -0.07335,-0.514697 -0.610833,0.40971 c -3.658251,2.453741 -5.658768,4.538919 -6.513981,6.789646 l -0.126389,0.33263 0.742977,0.038 c 0.408638,0.0209 1.720183,0.0725 2.914544,0.11471 1.194361,0.0422 2.427142,0.0984 2.739512,0.124777 0.312372,0.0264 0.661217,0.0527 0.775216,0.0584 l 0.207266,0.0104 z"
         style="fill:#ffffff;fill-opacity:1;stroke:none;stroke-width:0.06692261;stroke-miterlimit:4;stroke-dasharray:none;stroke-opacity:1" />
      <path
         inkscape:connector-curvature="0"
         id="path4567"
         d="m 86.196143,106.14227 c 0.01884,-0.40424 0.12214,-3.81694 0.22955,-7.583761 0.107408,-3.766819 0.214678,-7.322337 0.238374,-7.901142 l 0.04308,-1.052375 h 0.352806 c 0.472229,0 1.59085,0.113794 2.371485,0.241244 1.491861,0.24357 2.914615,0.698643 4.633838,1.482151 0.522306,0.238032 0.524412,0.240022 0.488466,0.461534 -0.04748,0.292595 -0.454115,1.087845 -0.813139,1.590254 -0.373803,0.523087 -1.392661,1.510893 -2.08607,2.022488 -0.897252,0.661993 -2.130936,1.360338 -3.367252,1.906085 l -0.375753,0.165867 -0.07631,0.425017 c -0.221922,1.236004 -0.408154,3.137518 -0.51472,5.255538 l -0.04469,0.8883 -0.556961,1.4169 -0.556964,1.41689 z m 2.622563,-10.606913 c 1.210154,-0.524351 2.310067,-1.281144 3.169674,-2.180884 0.546889,-0.57242 1.011047,-1.211905 0.933283,-1.285808 -0.08722,-0.08289 -2.370481,-0.775679 -2.929813,-0.888963 -0.346249,-0.07013 -0.780597,-0.102839 -1.202333,-0.09055 l -0.660254,0.01923 -0.08052,0.434314 c -0.122145,0.658847 -0.208491,2.394251 -0.170468,3.426108 0.03936,1.068231 -0.06805,1.003522 0.940432,0.566552 z"
         style="fill:#ffffff;fill-opacity:1;stroke:none;stroke-width:0.06692261;stroke-miterlimit:4;stroke-dasharray:none;stroke-opacity:1" />
      <path
         inkscape:connector-curvature="0"
         id="path4569"
         d="m 97.213668,105.9942 c -0.07575,-1.5109 0.0098,-6.937384 0.131763,-8.354125 0.276304,-3.210655 0.720558,-5.279967 1.57081,-7.316745 l 0.216148,-0.517782 0.879111,0.03818 c 2.68961,0.116811 5.17872,0.559342 7.18388,1.277196 l 0.29119,0.104249 -0.0438,0.27396 c -0.0426,0.266123 -0.40658,1.085123 -0.51099,1.149652 -0.0285,0.01762 -0.28323,-0.05986 -0.56602,-0.172196 -2.24838,-0.893152 -4.74189,-1.475436 -5.90944,-1.379972 -0.586508,0.04795 -0.616692,0.06512 -0.817844,0.465008 -0.536046,1.065665 -0.834996,2.481059 -0.957003,4.530974 l -0.04611,0.774719 1.161042,0.0398 c 1.328175,0.0455 2.326285,0.19977 3.499655,0.540957 1.51016,0.439127 1.51073,0.442427 0.0668,0.38903 -3.0055,-0.11115 -4.738815,0.0127 -4.8083,0.343477 -0.174395,0.830264 -0.369358,3.449408 -0.369718,4.966808 l -2.65e-4,1.41502 0.171125,0.1346 c 0.300458,0.23634 0.78949,0.29773 2.044538,0.25664 1.22542,-0.0401 2.11953,-0.16092 4.08937,-0.55249 0.65642,-0.13049 1.20494,-0.22581 1.21892,-0.21183 0.0492,0.0492 -0.94972,0.5768 -1.59937,0.84482 -1.30138,0.5369 -3.77726,1.25683 -5.991398,1.74217 -0.349123,0.0765 -0.684207,0.15413 -0.744638,0.17244 -0.09701,0.0294 -0.115665,-0.0823 -0.159395,-0.95452 z"
         style="fill:#ffffff;fill-opacity:1;stroke:none;stroke-width:0.06692261;stroke-miterlimit:4;stroke-dasharray:none;stroke-opacity:1" />
      <path
         inkscape:connector-curvature="0"
         id="path4571"
         d="m 109.31584,106.20909 c 0.0188,-0.36749 0.15352,-4.24431 0.29926,-8.615125 0.14574,-4.370825 0.27737,-7.959337 0.2925,-7.974466 0.0506,-0.05056 2.52702,0.657172 3.81702,1.090848 1.13197,0.380542 2.49961,0.916654 3.75432,1.471686 0.47852,0.211675 0.47918,0.215964 0.12642,0.830427 -0.28146,0.490283 -1.88046,2.081151 -3.18467,3.16848 -0.56937,0.474691 -1.06295,0.887288 -1.09686,0.916898 -0.0348,0.0304 0.41557,0.541387 1.03567,1.174924 1.78193,1.820538 3.23056,3.484768 5.49175,6.309058 0.72514,0.90574 1.31845,1.66821 1.31845,1.69438 0,0.0262 -1.07493,-1.00319 -2.38872,-2.28749 -2.65664,-2.59699 -3.13993,-3.04827 -4.16647,-3.89054 -1.11405,-0.914074 -2.26035,-1.673291 -2.52641,-1.673291 -0.0361,0 -0.27321,0.24805 -0.52684,0.551237 -0.40933,0.48929 -0.47702,0.611317 -0.60229,1.085774 -0.28166,1.06673 -0.5272,2.8203 -0.65162,4.65365 l -0.0438,0.64461 -0.49101,0.75855 -0.49101,0.75856 z m 2.65604,-9.414659 c 1.22979,-0.954874 4.3018,-3.656204 4.37251,-3.8449 0.0464,-0.123817 -2.18727,-0.987179 -3.31235,-1.280295 -0.47141,-0.122814 -1.03716,-0.218675 -1.42317,-0.241136 l -0.64071,-0.03728 -0.0442,0.821423 c -0.0605,1.124336 -0.0531,2.150073 0.0224,3.120731 0.082,1.054117 0.20666,2.022841 0.26034,2.022841 0.0232,0 0.36751,-0.252617 0.76515,-0.561374 z"
         style="fill:#ffffff;fill-opacity:1;stroke:none;stroke-width:0.06692261;stroke-miterlimit:4;stroke-dasharray:none;stroke-opacity:1" />
    </g>
  </g>
</svg>
